# xmcd
#
# Track frame offsets: 
#        150
#        15478
#        30515
#        47228
#        66919
#        82253
#        97041
#        110427
#        123000
#        137617
#        155285
#
# Disc length: 2285 seconds
#
# Revision: 2
# Processed by: cddbd v1.5.2PL0 Copyright (c) Steve Scherf et al.
# Submitted via: ExactAudioCopy v1.0b3
#
DISCID=8908eb0b
DTITLE=ムーンライダーズ - マニア・マニエラ (紙ジャケット仕様) MHCL-938
DYEAR=2006
DGENRE=JPop
TTITLE0=Kのトランク
TTITLE1=花咲く乙女よ穴を掘れ
TTITLE2=檸檬の季節
TTITLE3=気球と通信
TTITLE4=バースディ
TTITLE5=工場と微笑
TTITLE6=ばらと廃物
TTITLE7=滑車と振子 
TTITLE8=温和な労働者と便利な発電所
TTITLE9=スカーレットの誓い
TTITLE10=花咲く乙女よ穴を掘れ (Single Version)
EXTD=YEAR: 1982
EXTT0=
EXTT1=
EXTT2=
EXTT3=
EXTT4=
EXTT5=
EXTT6=
EXTT7=
EXTT8=
EXTT9=
EXTT10=
PLAYORDER=
